<svg width="42" height="42" viewBox="0 0 42 42" fill="none" xmlns="http://www.w3.org/2000/svg">
<g clip-path="url(#clip0_345_3832)">
<path d="M41.3674 26.0804C38.5626 37.3304 27.1676 44.1764 15.9162 41.3717C4.66994 38.5667 -2.1767 27.1717 0.628718 15.9223C3.43229 4.67086 14.8267 -2.17645 26.0747 0.628462C37.3255 3.43321 44.1715 14.8296 41.3665 26.0804H41.3674Z" fill="#F7931A"/>
<path d="M38.4614 25.3543C36.0571 34.9972 26.2893 40.8658 16.6441 38.4611C7.00295 36.0571 1.13378 26.2897 3.53913 16.6476C5.94238 7.00354 15.7102 1.13459 25.3524 3.53862C34.9969 5.94265 40.8657 15.7111 38.4612 25.3545L38.4613 25.3543H38.4614Z" fill="#F3BA2F"/>
<path fill-rule="evenodd" clip-rule="evenodd" d="M21.0022 14.424L16.3407 19.085L16.3408 19.0848L13.6286 16.3728L21.0022 9L28.3783 16.375L25.666 19.087L21.0022 14.424ZM11.7134 18.2875L9.00098 21L11.7132 23.7115L14.4256 20.9994L11.7134 18.2875ZM16.3407 22.9153L21.0022 27.576L25.6659 22.9131L28.3796 25.6236L28.3783 25.6251L21.0022 33L13.6286 25.6272L13.6248 25.6234L16.3407 22.9153ZM30.2913 18.2891L27.5789 21.0012L30.2912 23.7131L33.0035 21.001L30.2913 18.2891Z" fill="white"/>
<path d="M23.7526 20.9985H23.7538L21.0017 18.2466L18.9676 20.28L18.7339 20.5137L18.2519 20.9957L18.248 20.9995L18.2519 21.0034L21.0017 23.7533L23.754 21.0014L23.7553 20.9999L23.7528 20.9985" fill="white"/>
</g>
<defs>
<clipPath id="clip0_345_3832">
<rect width="41.9951" height="42" fill="white"/>
</clipPath>
</defs>
</svg>
