<svg width="44" height="44" viewBox="0 0 44 44" fill="none" xmlns="http://www.w3.org/2000/svg">
<circle cx="22" cy="22" r="22" fill="#8247E5"/>
<path d="M28.001 18.0092C27.5746 17.7654 27.0263 17.7654 26.5389 18.0092L23.1272 20.0198L20.8122 21.2994L17.4614 23.3101C17.035 23.5538 16.4867 23.5538 15.9993 23.3101L13.3796 21.7259C12.9532 21.4822 12.6486 20.9947 12.6486 20.4464V17.3999C12.6486 16.9124 12.8922 16.425 13.3796 16.1203L15.9993 14.5971C16.4258 14.3534 16.9741 14.3534 17.4614 14.5971L20.0811 16.1813C20.5076 16.425 20.8122 16.9124 20.8122 17.4608V19.4715L23.1272 18.131V16.0594C23.1272 15.572 22.8835 15.0845 22.3962 14.7799L17.5224 11.9162C17.0959 11.6725 16.5476 11.6725 16.0602 11.9162L11.0646 14.8408C10.5772 15.0845 10.3335 15.572 10.3335 16.0594V21.7868C10.3335 22.2742 10.5772 22.7617 11.0646 23.0663L15.9993 25.93C16.4258 26.1738 16.9741 26.1738 17.4614 25.93L20.8122 23.9803L23.1272 22.6398L26.478 20.6901C26.9044 20.4464 27.4527 20.4464 27.9401 20.6901L30.5598 22.2133C30.9862 22.457 31.2908 22.9445 31.2908 23.4928V26.5393C31.2908 27.0268 31.0472 27.5142 30.5598 27.8189L28.001 29.3421C27.5746 29.5858 27.0263 29.5858 26.5389 29.3421L23.9192 27.8189C23.4928 27.5751 23.1882 27.0877 23.1882 26.5393V24.5896L20.8731 25.93V27.9407C20.8731 28.4282 21.1168 28.9156 21.6042 29.2202L26.5389 32.0839C26.9653 32.3277 27.5137 32.3277 28.001 32.0839L32.9358 29.2202C33.3622 28.9765 33.6668 28.4891 33.6668 27.9407V22.1524C33.6668 21.665 33.4231 21.1775 32.9358 20.8729L28.001 18.0092Z" fill="#F6F6F6"/>
</svg>
