<svg width="44" height="44" viewBox="0 0 44 44" fill="none" xmlns="http://www.w3.org/2000/svg">
<circle cx="22" cy="22" r="22" fill="#50AF95"/>
<path fill-rule="evenodd" clip-rule="evenodd" d="M24.3739 22.7711C24.2414 22.7806 23.5563 22.8197 22.0283 22.8197C20.813 22.8197 19.9501 22.7849 19.6474 22.7711C14.9507 22.5737 11.445 21.7927 11.445 20.8574C11.445 19.9222 14.9507 19.1422 19.6474 18.9416V21.9932C19.9545 22.0143 20.834 22.0639 22.0493 22.0639C23.5077 22.0639 24.238 22.0059 24.3695 21.9943V18.9438C29.0563 19.1433 32.5542 19.9244 32.5542 20.8574C32.5542 21.7905 29.0574 22.5716 24.3695 22.7701L24.3739 22.7711ZM24.3739 18.6282V15.8975H30.9146V11.7334H13.1067V15.8975H19.6463V18.6271C14.3308 18.8604 10.3335 19.8663 10.3335 21.0717C10.3335 22.2771 14.3308 23.282 19.6463 23.5163V32.2667H24.3728V23.5132C29.6761 23.2799 33.6668 22.275 33.6668 21.0707C33.6668 19.8663 29.6794 18.8614 24.3728 18.6271L24.3739 18.6282Z" fill="white"/>
</svg>
